# xmcd
#
# Track frame offsets: 
#        150
#        900
#        20086
#        37769
#        47756
#        64439
#        79449
#        95233
#        111527
#        129929
#        146172
#        159837
#        177151
#        199185
#        215845
#        231089
#        246366
#        260982
#        269936
#
# Disc length: 3838 seconds
#
# Revision: 4
# Processed by: cddbd v1.4PL0 Copyright (c) Steve Scherf et al.
# Submitted via: ExactAudioCopy v0.90b3
#
DISCID=260efc13
DTITLE=Various Artist - Top Hits USA T627 020802
DYEAR=2002
DGENRE=other
TTITLE0=n
TTITLE1=Marc Anthony - I Need You
TTITLE2=Marilyn Scott - Don't Let Love Get Away [Radio Edit]
TTITLE3=Eddie Vedder - You've Got Hide Your Love Away
TTITLE4=Familiar 48 - The Question
TTITLE5=Code 5 - What's UR Name Girl [Radio Version]
TTITLE6=Lenny Kravitz - Stillness Of Heart
TTITLE7=Soluna - For All Time [Radio Edit]
TTITLE8=Remy Zero - Save Me [Radio Edit]
TTITLE9=Corey f Lil' Romeo - Hush Lil Lady [Main]
TTITLE10=311 - Amber [Radio Edit]
TTITLE11=Fat Joe f Ashanti - What's Luv [Extra Clean WARNING CONTENT]
TTITLE12=Kid Rock - Lonely Road Of Faith [Radio Edit]
TTITLE13=Clint Black - Money Or Love [Single Version]
TTITLE14=Shannon Brown - Untangle My Heart
TTITLE15=Mark Chesnutt - She Was
TTITLE16=Jeffery Steele - I Can Give You Love Like That
TTITLE17=Dale Watson and The Jordanaires - In The Jailhouse Now
TTITLE18=Nappy Roots - Awnaw [Squeaky Clean]
EXTD=
EXTT0=
EXTT1=
EXTT2=
EXTT3=
EXTT4=
EXTT5=
EXTT6=
EXTT7=
EXTT8=
EXTT9=
EXTT10=
EXTT11=
EXTT12=
EXTT13=
EXTT14=
EXTT15=
EXTT16=
EXTT17=
EXTT18=
PLAYORDER=
